<?xml version="1.0" encoding="utf-8"?>
<!-- Generator: Adobe Illustrator 25.2.1, SVG Export Plug-In . SVG Version: 6.00 Build 0)  -->
<svg version="1.1" id="Capa_2" xmlns="http://www.w3.org/2000/svg" xmlns:xlink="http://www.w3.org/1999/xlink" x="0px" y="0px"
	 viewBox="0 0 1000 350" style="enable-background:new 0 0 1000 350;" xml:space="preserve">
<style type="text/css">
	.st0{fill:#3D3D3B;}
	.st1{font-family:'Roboto-Regular';}
	.st2{font-size:18px;}
	.st3{fill:#DD7324;}
	.st4{font-family:'Roboto-Bold';}
	.st5{fill:none;stroke:#575756;stroke-width:0.5;stroke-miterlimit:10;}
	.st6{fill:none;stroke:#000000;stroke-width:0.5;stroke-miterlimit:10;}
	.st7{font-family:'Roboto-Light';}
	.st8{font-size:16px;}
	.st9{fill:none;}
	.st10{fill:none;stroke:#C6C6C6;stroke-width:0.3;stroke-miterlimit:10;stroke-dasharray:1,1;}
	.st11{fill:#BFB2A3;}
	.st12{fill:none;stroke:#000000;stroke-width:0.3;stroke-miterlimit:10;stroke-dasharray:1,1;}
	.st13{fill:#FFFFFF;}
	.st14{fill:#1D1D1B;}
	#datos{
	opacity:0; transition:all ease 0.25s
	}
	svg:hover #datos{opacity:1; transition:all ease 0.25s}
</style>
<g>
	<text transform="matrix(1 0 0 1 871.3181 331.3257)" class="st0 st1 st2">Gato</text>
</g>
<g>
	<text transform="matrix(1 0 0 1 654.4914 331.3257)" class="st0 st1 st2">Leopardo</text>
</g>
<g>
	<text transform="matrix(1 0 0 1 366.6393 331.3052)" class="st3 st4 st2">Tigre</text>
</g>
<g>
	<text transform="matrix(1 0 0 1 123.9764 331.3276)" class="st0 st1 st2">Humano</text>
</g>
<g>
	<g>
		<line class="st5" x1="210" y1="300.3" x2="961.2" y2="300.3"/>
		<g>
			<g>
				<line class="st6" x1="108.9" y1="307" x2="108.9" y2="299.8"/>
				<line class="st6" x1="960.3" y1="307" x2="960.3" y2="300.3"/>
			</g>
			<g>
			</g>
		</g>
	</g>
	<g>
		<g>
			<text transform="matrix(1 0 0 1 45.0009 241.3486)" class="st0 st7 st8">50 cm</text>
			<text transform="matrix(1 0 0 1 38.2138 173.7861)" class="st0 st7 st8">100 cm</text>
			<text transform="matrix(1 0 0 1 39.0536 106.169)" class="st0 st7 st8">150 cm</text>
			<text transform="matrix(1 0 0 1 34.8192 38.6572)" class="st0 st7 st8">200 cm</text>
		</g>
		<line class="st9" x1="83.5" y1="290.5" x2="85" y2="30"/>
		<g>
			<g>
				<line class="st6" x1="108" y1="300.3" x2="961.2" y2="300.3"/>
				<line class="st10" x1="108.5" y1="232.7" x2="961.2" y2="232.7"/>
				<line class="st10" x1="108.5" y1="165.1" x2="961.2" y2="165.1"/>
				<line class="st10" x1="108.5" y1="97.6" x2="961.2" y2="97.6"/>
				<line class="st9" x1="962" y1="133.5" x2="962" y2="133.5"/>
				<line class="st10" x1="108.5" y1="30" x2="961.2" y2="30"/>
			</g>
			<g>
			</g>
		</g>
	</g>
	<g>
		<g>
			<g>
				<rect x="454.1" y="70.5" class="st9" width="96.5" height="229.7"/>
			</g>
		</g>
		<g>
			<g>
				<rect x="346.9" y="151.6" class="st9" width="96.5" height="148.6"/>
			</g>
		</g>
		<g>
			<g>
				<rect x="239.6" y="198.9" class="st9" width="96.5" height="101.3"/>
			</g>
		</g>
		<g>
			<g>
				<rect x="132.4" y="266.5" class="st9" width="96.5" height="33.8"/>
			</g>
		</g>
	</g>
	<g>
		<g>
		</g>
		<g>
		</g>
		<g>
		</g>
		<g>
		</g>
	</g>
</g>
<g>
	<path id="XMLID_2_" class="st3" d="M555,183.9c-2.2-5.1-4.3-10.3-6.5-15.4c-1.6-3.7-3.4-7.3-5.4-10.8c-4.6-8.2-12.3-12.4-21.9-14.4
		c-2.1-0.4-4.1-1.9-6-3.1c-2.5-1.6-4.7-3.5-7.3-4.9c-4.1-2.3-6.3-1.9-9.1,1.7c-1.4,1.8-2.9,2.2-5.1,2.3c-8.6,0-16.5,2.9-24.3,5.7
		c-7.5,2.7-15.1,5.5-22.6,8.2c-11,4.1-22.4,4.6-34.1,3.3c-17.3-1.9-34.6-3.6-51.9-5.4c-14.2-1.4-28.5-1.8-42.8-0.5
		c-18.3,1.6-34.8,7-47.2,20.2c-8.8,9.4-13.5,20.7-16.6,32.6c-1.6,6.1-2.9,12.2-4.7,18.2c-0.9,2.9-2.5,5.7-4.4,8.2
		c-2.5,3.4-6.6,4.3-10.9,4.2c-1,0-2.2-0.8-2.9-1.5c-1.8-2.1-4-2.6-6.6-1.5c-2.4,1-3.1,3.6-2.1,6.2c1.2,3,3.7,4.5,6.9,5.3
		c11.2,2.8,22.6-2.3,27-12.9c2.9-7,4.6-14.4,6.5-21.7c2.7-10.2,6.1-20.1,13.1-28.6c0.5-0.6,1.1-1.3,1.6-1.9c0.2-0.2,0.5-0.3,0.6-0.4
		c1.3,21.8-0.2,43.3-14.8,61.7c-4.6,5.7-4.8,11.1-4,17.5c1.5,11.4,2.4,22.9,3.6,34.4c1,9.7,0.6,10.6,11.8,10.3
		c6.1-0.1,12.1,0,18.2,0c5.5,0,7.5-2.5,5.8-7.3c-0.9-2.6-1.6-5.5-3.1-7.8c-1.6-2.4-3.8-4.6-6.2-6.3c-1.5-1.1-2.1-1.8-1.6-3.6
		c2.8-11.5,10.3-19.6,22.2-25.7c1,7.9,2.5,15.5,2.7,23.1c0.2,6.1,1.4,11.3,5.9,15.9c2.6,2.7,4.6,5.7,6.9,8.7c1.5,2,3.6,3,6.3,3
		c7.6-0.1,15.2,0,22.7,0c5.1,0,7.3-3.4,4.8-7.4c-1.9-3-3.9-6-5.9-8.9c-2.7-4-6.7-6.4-11.9-7.1c2.5-17.1,5-34.1,7.5-51.3
		c20.3,7.1,41.4,10.6,63.1,12.7c-1.1,6.9-2.2,13.4-3.3,20c-0.9,5.6-2,11.2-2.8,16.8c-0.2,1.4,0.1,3,0.7,4.3c2.5,5.7,5.2,11.3,7.7,17
		c1.3,2.8,3.4,4.1,6.8,4c6.9-0.1,13.9,0,20.8,0c5.6,0,7.8-3.3,5.1-7.9c-2.4-4-4.3-8.7-7.8-11.5c-3.6-2.9-3.1-4.9-1.8-8.2
		c3.5-8.4,6.6-17,10.1-26.1c0.9,1.5,1.5,2.5,2,3.5c7.4,13.4,15.4,26.5,26.4,37.8c3.8,3.9,8.2,7.3,12.5,10.8c1.1,0.9,2.9,1.4,4.4,1.5
		c6.4,0.2,12.8,0.1,19.2,0c5.1-0.1,7.3-3.1,5.3-7.3c-1.3-2.7-2.8-5.4-4.3-8c-2.2-3.9-5.6-6.5-10.2-7.7c-1-0.3-2.3-1.2-2.6-2.1
		c-8.6-19.9-13-40.4-9.8-61.8c0.9-5.9,2.9-11.7,4.3-17.4c5.2-0.3,9.7-0.8,14.2-0.7c5.8,0.1,10.5,2.7,14.6,6.3
		c5.5,4.7,9.4,5.3,15.1,0.7c5.8-4.6,10.7-10.3,16-15.4C555,186.3,555,185.1,555,183.9z"/>
</g>
<g>
	<path class="st11" d="M584,256.2c2.7-2.3,3.5-2.2,6.3,0.1c0.4,0.4,1.1,0.6,1.7,0.6c2.9,0,5.6-0.6,7.2-3c1.1-1.6,2.1-3.4,2.7-5.3
		c1.2-3.9,2-7.9,3.1-11.8c2.1-7.8,5.1-15.2,10.9-21.4c8.1-8.7,19-12.3,31-13.3c9.6-0.9,19.2-0.6,28.7,0.4c11,1.1,22,2.2,33,3.4
		c6.4,0.7,12.8,1.1,19-0.9c6.3-2,12.5-4.3,18.7-6.5c5.2-1.8,10.5-3.7,16.2-3.8c1.4,0,2.3-0.3,3.2-1.4c1.9-2.4,3.3-2.6,6.1-1.1
		c1.4,0.8,2.9,1.5,3.9,2.6c1.7,1.8,3.8,2.6,6.2,3.1c6.2,1.3,10.8,4.7,13.3,10c2.5,5.3,4.8,10.7,6.9,16.2c0.4,1,0.2,2.7-0.5,3.4
		c-3,3.2-6,6.3-9.4,9c-4,3.1-6.4,2.7-10.3-0.5c-2.8-2.3-5.9-4-9.7-4c-2.9,0-5.8,0.3-9.1,0.5c-0.9,3.7-2.2,7.5-2.8,11.4
		c-2.1,14.1,0.8,27.5,6.4,40.6c0.3,0.6,1.1,1.2,1.7,1.4c3.1,0.8,5.3,2.5,6.7,5.1c1,1.7,1.9,3.5,2.8,5.3c1.3,2.7-0.1,4.8-3.2,4.8
		c-4.3,0.1-8.7,0.1-13,0c-0.9,0-2-0.4-2.7-1c-2.8-2.3-5.7-4.5-8.2-7.1c-7.2-7.4-12.5-16-17.3-24.8c-0.4-0.7-0.7-1.3-1.3-2.3
		c-2.3,6-4.4,11.6-6.7,17.1c-0.9,2.2-1.2,3.5,1.2,5.4c2.3,1.8,3.6,4.9,5.2,7.5c1.8,3,0.4,5.2-3.3,5.2c-4.6,0-9.1-0.1-13.7,0
		c-2.2,0-3.6-0.8-4.4-2.6c-1.7-3.7-3.5-7.4-5.1-11.2c-0.4-0.9-0.6-1.9-0.4-2.8c0.5-3.7,1.3-7.5,1.9-11.2c0.7-4.2,1.4-8.5,2.1-12.9
		c-14.3-1.4-28.1-3.7-41.4-8.4c-1.6,11.3-3.3,22.5-4.9,33.7c3.7,0.5,6.4,2.3,8.2,5.1c1.1,1.7,2.3,3.4,3.4,5.2c1.7,2.8,0.4,5-3.1,5
		c-3.5,0-7,0-10.5,0c-8,0-6.2,0.7-11.1-5.1c-3.7-4.3-6.7-8.7-5.8-14.5c0.2-1.2-0.2-2.5-0.4-3.7c-0.5-3.2-1.1-6.5-1.7-9.8
		c-6.6,3.5-11.5,7.9-13.6,14.4c-0.4,1.2-1,2.5-0.8,3.6c0.1,0.7,1.6,1.3,2.4,1.9c3.5,2.8,4.4,6.6,5.1,10.4c0.3,1.6-1.2,2.8-3.3,2.8
		c-5.5,0.1-11.1,0.1-16.6,0c-2,0-3.2-1-3.4-2.9c-0.3-2.7-0.6-5.5-0.9-8.2c-0.8-7.6-1.7-15.2-2.3-22.8c-0.1-1.4,0.2-3.1,1.1-4.2
		c10.8-12.9,12.7-27.8,11.5-43.8c-1.7,2.5-3.4,4.7-4.7,7c-3.5,6-4.9,12.6-6.5,19.1c-1.2,5.1-2.5,10-6.6,14c-5.3,5.1-15.1,5.1-19-0.1
		C584,258,584,257.1,584,256.2z"/>
</g>
<g>
	<path class="st11" d="M869.1,299.6c-0.2-0.4-0.4-0.8-0.6-1.3c-0.7-1.3-1.4-2.7-2-4c-0.8-1.8-0.9-3.8-0.3-6.1
		c0.4-1.4,0.7-2.8,0.5-4.1c-0.4-2.9-0.7-6.2,0-9.7c0.1-0.3,0.1-0.5-0.6-1c-0.2-0.2-0.5-0.3-0.7-0.5c-1.6-1.2-3.3-2.4-4.8-3.8
		c-3.9-3.7-5.6-7.9-5.2-12.4c0.1-1.4,0.2-2.9,0.2-4.6c0-1.2-0.5-1.9-1.5-2.4c-0.6-0.3-1.3-0.7-2-1.1c-1.7-1.1-2.2-2.6-1.5-4.3
		c0.6-1.5,2.2-2.3,4.2-2.1c3.6,0.3,7.1,3.8,7.3,7.3c0.1,1.2,0,2.5,0,3.7c0,0.7,0,1.5,0,2.3c0,0.3,0,0.5,0,0.8c0,0.9,0,1.7,0.2,2.3
		c1.2,4,4.1,6.7,8.7,8.4c0.5,0.2,1.2,0.2,1.9,0.1c2.8-0.5,5.7-0.6,9.1-0.4c2.9,0.2,5.9,0.5,8.8,0.8c2.2,0.2,4.4,0.4,6.6,0.6
		c3.8,0.3,6.9,0.2,9.8-0.3c4.2-0.8,6.9-2.5,8.6-5.3c0.7-1.2,1.7-2.2,2.6-3.2l0.1-0.1c0.7-0.7,1.6-1.1,2.4-0.9c0.9,0.1,1.6,0.7,2,1.6
		c0.4,0.9,0.6,1.8,0.8,2.6c0,0.2,0,0.2,0.2,0.2c2.2,1.2,3.5,2.8,3.8,4.8c0.1,0.6,0.3,1,0.8,1.4c0.9,0.8,1.4,1.8,1.3,2.9
		c-0.1,1-0.6,1.9-1.6,2.6c-0.9,0.6-1.9,1.1-3,1.4c-3.1,0.8-5.5,2.6-7.5,5.6c-0.4,0.6-0.5,1.2-0.5,2c0.1,1,0.1,1.9,0.2,2.9
		c0.1,1.3,0.1,2.5,0.3,3.8c0.2,1.6,0.5,3.3,0.8,4.9c0.1,0.3,0.1,0.7,0.2,1c0.1,0.5,0.3,0.8,0.7,1.1c0.5,0.3,0.9,0.9,1.2,1.7
		c0.2,0.5,0.1,1.1-0.2,1.5c-0.2,0.2-0.7,0.6-1.5,0.6c-0.3,0-0.7,0-1.1,0c-0.5,0-1,0-1.4,0c-0.5,0-1.2-0.3-1.6-0.8
		c-2.3-2.9-3.8-5.6-4.7-8.5c-1.1,1.6-1.9,3.5-2.3,5.9c0.1,0.1,0.1,0.1,0.2,0.2c0.4,0.4,1.2,1.1,1,2.3l-0.2,0.9h-0.9
		c-0.2,0-0.4,0-0.6,0c-0.5,0-0.9,0-1.4,0c-2.9-0.1-3.5-0.5-4.1-3.1c0-0.1,0-0.2-0.1-0.3l0-0.1c-0.7-3.6-0.1-7,0.5-9.6
		c-0.3,0-0.6,0-0.9,0c-1.5,0-3.1,0-4.6-0.2c-2.1-0.2-4.2-0.5-6.3-0.8c-1.1-0.2-2.3-0.3-3.4-0.5c-0.9,1.4-1.8,2.9-2.6,4.3l-0.6,0.9
		c-0.3,0.5-0.4,1.1-0.2,1.8c0.1,0.4,0.2,0.8,0.3,1.1c0.3,1.4,0.6,2.7,1.6,3.6c0.5,0.4,0.7,1.3,0.4,2c-0.4,0.7-1.4,0.9-1.6,0.9
		c-0.6,0-1.3,0-1.9,0c-0.3,0-1.1-0.1-1.6-0.7l0,0c-2.2-2.6-4.5-5.4-5.1-8.9c-0.1-0.4-0.1-0.8-0.2-1.2c-0.4,0.3-0.7,0.6-1,0.9
		c-0.4,0.4-0.7,1-0.8,1.6c-0.1,0.3-0.1,0.8,0.2,1.6c0.1,0.5,0.2,1,0.3,1.5c0.1,1,0.3,1.8,0.9,2.4c0.5,0.5,0.7,1.1,0.4,1.7
		c-0.3,0.6-1,1.1-1.8,1.1c-0.3,0-0.5,0-0.7,0c-0.3,0-0.5,0-0.8,0c-0.1,0-0.2,0-0.3,0C870.3,300.9,869.5,300.4,869.1,299.6z
		 M883.5,299.6C883.5,299.6,883.5,299.6,883.5,299.6C883.5,299.6,883.5,299.6,883.5,299.6z M916.3,298.8
		C916.3,298.8,916.3,298.8,916.3,298.8C916.3,298.8,916.3,298.8,916.3,298.8z"/>
</g>
<path class="st11" d="M135.9,144.4c-0.3,3.2-1,6.3-0.8,9.5c0.3,5.8-0.9,11.2-2.6,16.7c-2,6.4-4,12.9-4.8,19.5
	c-0.6,4.8,0.8,9.8,1.1,14.7c0.1,1-0.5,2-1.4,2.8c0.4,1.9,0.7,3.7,1.1,5.6c-0.4,0.1-0.7,0.2-1.1,0.4c-3.3-3.8-7-7.4-6.8-13
	c0.1-4.8,1.1-9.5,1.2-14.2c0.2-6.5-0.1-13.1,0.2-19.6c0.2-4.9,1-9.7,1.4-14.5c0.4-4.1,0.5-8.2,0.8-12.3c0.4-5.8,1-11.7,1.3-17.5
	c0.3-4.5,2.9-7.1,6.7-8.8c4.7-2,9.4-3.8,14.1-5.7c4.1-1.7,5-6.2,2.2-9.7c-1.7-2.2-2.7-4.9-3.9-7.3c-0.2-0.4,0-1.9,0.2-2.2
	c1.3-2.4,1-3.5,1.1-5.8c0.2-6.9,4.8-11.6,11.7-11.8c7-0.2,11.8,3.9,12.6,10.8c0.3,2.6,0,5,1,7.7c0.8,2-1.9,5.3-3.1,8
	c-0.8,1.8-1.8,3.6-2.1,5.5c-0.3,2,0.7,3.5,2.8,4.3c4.1,1.6,8.2,3.2,12.2,4.9c1.6,0.7,3.2,1.4,4.8,2.2c2.7,1.5,4.4,3.8,4.7,7
	c0.4,5,0.8,9.9,1.3,14.9c0.8,8.6,1.7,17.3,2.3,25.9c0.3,3.5-0.3,7-0.1,10.5c0.3,5.9,0.4,11.9,1.3,17.7c1.3,8.4,0.5,15.9-5.7,22.2
	c-0.2,0.3-0.7,0.3-1.9,1c0.4-2.5,0.7-4.4,0.9-6.2c-0.1,0.1-0.3,0.1-0.4,0.2c-0.3-1-1.1-2.1-0.9-3.1c2.1-11.5,1.6-22.6-3.2-33.4
	c-2.5-5.7-3.6-11.7-3-18c0.3-2.9-0.6-6-1.5-9c-0.2,0.7-0.4,1.3-0.6,2c-2.1,8.3-1,16.6,1.3,24.6c3.6,13,2.7,26,1.2,39
	c-0.7,6.3-3.1,12.5-4,18.8c-0.9,6.2-1.6,12.7-0.8,18.9c1.2,9.6-0.6,18.6-3.3,27.7c-0.6,2.1-1.2,4.2-2.1,6.1c-1.9,3.9-1.9,8-0.5,11.9
	c0.5,1.5,2.2,2.5,3.2,3.9c0.6,0.8,1,1.7,1.4,2.6c-0.8,0.4-1.6,1.1-2.5,1.1c-3.1,0.1-6.3,0.2-9.4-0.1c-1-0.1-2.5-1.4-2.6-2.3
	c-0.3-2.8-0.4-5.7,0.2-8.4c1.9-7.8,2-15.6,0.6-23.5c-0.6-3.6,0.3-7.4,0.3-11.1c-0.1-6.5-0.4-13-0.7-19.5c-0.7-14-1.4-28.1-2.1-42.1
	c0-0.8-0.2-1.6-0.3-2.4c-0.3,0-0.6-0.1-1-0.1c-0.2,0.9-0.5,1.7-0.6,2.6c-0.8,15.3-1.8,30.6-2.4,45.9c-0.3,6.5,0.2,13,0.2,19.5
	c0,2.7,0.1,5.5-0.4,8.1c-1.5,7.3-1.1,14.5,0.5,21.8c0.6,2.8,0.6,5.8,0.6,8.7c0,1.7-0.8,3-2.9,3c-3.2,0-6.5,0.1-9.7-0.1
	c-0.8,0-1.8-0.8-2.2-1.4c-0.2-0.4,0.6-1.6,1.2-2c3.9-3.1,5.6-8.4,3.9-13.1c-3-8.7-6.1-17.3-6.8-26.6c-0.1-1.4-0.4-2.8-0.1-4.1
	c1.6-7.2,1.2-14.4,0.1-21.5c-0.7-5.1-2.7-10-3.4-15.1c-2.3-15.5-3.8-30.9,0.3-46.5c3.1-11.8,2.7-17.3,0.7-26
	C136.4,144.4,136.1,144.4,135.9,144.4z"/>
<g id="datos">
	<g>
		<g>
			<g>
				<line class="st12" x1="267.4" y1="123.2" x2="552.2" y2="123.2"/>
				<g>
					<rect x="267.2" y="122.2" width="0.3" height="1.9"/>
				</g>
				<g>
					<rect x="552.1" y="122.2" width="0.3" height="2"/>
				</g>
			</g>
		</g>
		<g>
			<rect x="347.8" y="110" class="st13" width="90.9" height="22.4"/>
			<text transform="matrix(1 0 0 1 356.1538 128.9814)" class="st14 st4 st2">2 a 2,5 m</text>
		</g>
	</g>
	<text transform="matrix(1 0 0 1 330.0781 200.6514)" class="st13 st4 st2">140 a 220 kg</text>
	<g>
		<g>
			<g>
				<path class="st3" d="M546.7,57H435.5c-9.3,0-16.9,8.9-16.9,19.9s7.6,19.9,16.9,19.9h111.2c9.3,0,16.9-8.9,16.9-19.9
					S556,57,546.7,57z"/>
				
					<rect x="479.4" y="85.1" transform="matrix(0.7071 -0.7071 0.7071 0.7071 75.4396 375.623)" class="st3" width="23.4" height="23.4"/>
			</g>
		</g>
		<text transform="matrix(1 0 0 1 441.2851 86)" class="st13 st4 st2">90 a 110 cm</text>
	</g>
</g>
<text transform="matrix(1 0 0 1 55.5809 307.0088)" class="st0 st7 st8">0 cm</text>
</svg>
