<?xml version="1.0" encoding="utf-8"?>
<!-- Generator: Adobe Illustrator 25.2.1, SVG Export Plug-In . SVG Version: 6.00 Build 0)  -->
<svg version="1.1" id="Capa_1" xmlns="http://www.w3.org/2000/svg" xmlns:xlink="http://www.w3.org/1999/xlink" x="0px" y="0px"
	 viewBox="0 0 1000 1200" style="enable-background:new 0 0 1000 1200;" xml:space="preserve">
<style type="text/css">
	.st0{fill:#DD7324;}
	.st1{fill:none;stroke:#000000;stroke-width:0.5;stroke-linecap:round;stroke-linejoin:round;}
	.st2{fill:none;}
	.st3{fill:#1E1E1C;}
	.st4{font-family:'Roboto-Light';}
	.st5{font-size:19.0597px;}
	.st6{fill:none;stroke:#000000;stroke-width:0.5;stroke-linecap:round;stroke-miterlimit:10;}
	.st7{fill:none;stroke:#000000;stroke-width:0.5;stroke-linecap:round;stroke-linejoin:round;stroke-miterlimit:10;}
	.st8{fill:none;stroke:#000000;stroke-width:0.5;stroke-miterlimit:10;stroke-dasharray:1,1;}
</style>
<circle class="st0" cx="737.4" cy="245.4" r="9.9"/>
<image style="overflow:visible;" width="1689" height="2141" xlink:href="tigre.png"  transform="matrix(0.5799 -1.965625e-02 1.965625e-02 0.5799 18.3356 33.1994)">
</image>
<g>
	<g>
		<g>
			<polyline class="st1" points="446.9,910.8 467.2,916.6 511.8,944.2 			"/>
			<g>
				<path d="M446.7,911.7c-0.5-0.1-0.8-0.7-0.6-1.2c0.1-0.5,0.7-0.8,1.2-0.6c0.5,0.1,0.8,0.7,0.6,1.2
					C447.7,911.6,447.2,911.9,446.7,911.7z"/>
			</g>
		</g>
	</g>
	<g>
		<rect x="511.8" y="931.8" class="st2" width="159" height="70.4"/>
		<text transform="matrix(1 0 0 1 516.5486 946.0557)"><tspan x="0" y="0" class="st3 st4 st5">El patrón de rayas </tspan><tspan x="4" y="22.9" class="st3 st4 st5">oscuras es único </tspan><tspan x="-0.1" y="45.7" class="st3 st4 st5">en cada individuo.</tspan></text>
	</g>
</g>
<g>
	<g>
		<g>
			<line class="st1" x1="539.6" y1="280.7" x2="434.3" y2="195.4"/>
			<g>
				<path d="M540.1,279.9c0.4,0.3,0.5,0.9,0.1,1.3c-0.3,0.4-0.9,0.5-1.3,0.1c-0.4-0.3-0.5-0.9-0.1-1.3
					C539.1,279.7,539.7,279.6,540.1,279.9z"/>
			</g>
		</g>
	</g>
	<g>
		<g>
			<line class="st6" x1="594.1" y1="226.2" x2="496.1" y2="245.4"/>
			<g>
				<path d="M593.9,225.3c0.5-0.1,1,0.2,1.1,0.7s-0.2,1-0.7,1.1s-1-0.2-1.1-0.7S593.4,225.4,593.9,225.3z"/>
			</g>
		</g>
	</g>
	<g>
		<rect x="204.7" y="129.6" class="st2" width="224.6" height="108.5"/>
		<text transform="matrix(1 0 0 1 216.3596 143.9351)"><tspan x="0" y="0" class="st3 st4 st5">Poseen un punto blanco </tspan><tspan x="-11.2" y="22.9" class="st3 st4 st5">detrás de cada oreja que le </tspan><tspan x="0.1" y="45.7" class="st3 st4 st5">sirve de camuflaje en su </tspan><tspan x="38" y="68.6" class="st3 st4 st5">hábitat natural.</tspan></text>
	</g>
</g>
<g>
	<line class="st7" x1="731.4" y1="86.6" x2="737.4" y2="235.5"/>
	<g>
		<rect x="551.3" y="31.4" class="st2" width="174.3" height="94.1"/>
		<text transform="matrix(1 0 0 1 556.075 45.7368)"><tspan x="0" y="0" class="st3 st4 st5">Bigotes sensibles al </tspan><tspan x="9.9" y="22.9" class="st3 st4 st5">tacto, les ayuda a </tspan><tspan x="-0.7" y="45.7" class="st3 st4 st5">encontrar el camino </tspan><tspan x="16.7" y="68.6" class="st3 st4 st5">en la oscuridad.</tspan></text>
	</g>
</g>
<g>
	<line class="st7" x1="218.6" y1="687.3" x2="190.9" y2="778.6"/>
	<g>
		<rect x="50.9" y="790.5" class="st2" width="182.4" height="62.3"/>
		<text transform="matrix(1 0 0 1 63.6589 804.7783)"><tspan x="0" y="0" class="st3 st4 st5">La cola mide de 85 </tspan><tspan x="-11.5" y="22.9" class="st3 st4 st5">cm a 1 m de longitud.</tspan></text>
	</g>
	<g>
		<g>
			<path class="st8" d="M290.5,589.1c-27-43.9-96.1-8.2-99.4,26.1c-5.5,56.7,68.9,124.3,112.5,140.9c46.9,17.8,58.3,32.6,59.4,34.2"
				/>
			<g>
				<rect x="289.7" y="589" transform="matrix(0.8269 -0.5624 0.5624 0.8269 -281.0014 265.3487)" width="1.6" height="0.3"/>
			</g>
			<g>
				<rect x="362.3" y="790.3" transform="matrix(0.8022 -0.5971 0.5971 0.8022 -400.1068 373.179)" width="1.6" height="0.3"/>
			</g>
		</g>
	</g>
</g>
<g>
	<g>
		<rect x="337.1" y="563" class="st2" width="174.6" height="74.3"/>
		<text transform="matrix(1 0 0 1 340.719 577.3218)"><tspan x="0" y="0" class="st3 st4 st5">Las líneas verticales </tspan><tspan x="-1.8" y="22.9" class="st3 st4 st5">en la cola se vuelven </tspan><tspan x="54.6" y="45.7" class="st3 st4 st5">anillos.</tspan></text>
	</g>
	<g>
		<g>
			<line class="st1" x1="376.1" y1="707.4" x2="395.3" y2="644.5"/>
			<g>
				<path d="M377,707.6c-0.2,0.5-0.7,0.8-1.2,0.6c-0.5-0.2-0.8-0.7-0.6-1.2c0.2-0.5,0.7-0.8,1.2-0.6
					C376.9,706.6,377.1,707.1,377,707.6z"/>
			</g>
		</g>
	</g>
</g>
</svg>
