<?xml version="1.0" encoding="utf-8"?>
<!-- Generator: Adobe Illustrator 25.2.1, SVG Export Plug-In . SVG Version: 6.00 Build 0)  -->
<svg version="1.1" id="Capa_1" xmlns="http://www.w3.org/2000/svg" xmlns:xlink="http://www.w3.org/1999/xlink" x="0px" y="0px"
	 viewBox="0 0 1000 1000" style="enable-background:new 0 0 1000 1000;" xml:space="preserve">
<style type="text/css">
	.st0{fill:#DD7324;}
	.st1{fill:none;stroke:#000000;stroke-width:0.5;stroke-linecap:round;stroke-linejoin:round;}
	.st2{fill:none;}
	.st3{fill:#1E1E1C;}
	.st4{font-family:'Roboto-Light';}
	.st5{font-size:16px;}
	.st6{fill:none;stroke:#000000;stroke-width:0.5;stroke-linecap:round;stroke-miterlimit:10;}
	.st7{fill:none;stroke:#000000;stroke-width:0.5;stroke-linecap:round;stroke-linejoin:round;stroke-miterlimit:10;}
	.st8{fill:none;stroke:#000000;stroke-width:0.5;stroke-miterlimit:10;stroke-dasharray:1,1;}
</style>
<circle class="st0" cx="700.5" cy="190.3" r="8.3"/>
<image style="overflow:visible;" width="1689" height="2141" xlink:href="tigre.png"  transform="matrix(0.4868 -1.650083e-02 1.650083e-02 0.4868 96.8449 12.1722)">
</image>
<g>
	<g>
		<g>
			<polyline class="st1" points="456.8,748.9 473.7,753.8 511.1,777 			"/>
			<g>
				<path d="M456.6,749.9c-0.5-0.1-0.8-0.7-0.6-1.2c0.1-0.5,0.7-0.8,1.2-0.6c0.5,0.1,0.8,0.7,0.6,1.2
					C457.6,749.7,457,750,456.6,749.9z"/>
			</g>
		</g>
	</g>
	<g>
		<rect x="511.1" y="766.5" class="st2" width="133.5" height="59.1"/>
		<text transform="matrix(1 0 0 1 515.0788 778.4875)"><tspan x="0" y="0" class="st3 st4 st5">El patrón de rayas </tspan><tspan x="3.4" y="19.2" class="st3 st4 st5">oscuras es único </tspan><tspan x="-0.1" y="38.4" class="st3 st4 st5">en cada individuo.</tspan></text>
	</g>
</g>
<g>
	<g>
		<g>
			<line class="st1" x1="534.3" y1="219.8" x2="446" y2="148.3"/>
			<g>
				<path d="M534.8,219.1c0.4,0.3,0.5,0.9,0.1,1.3c-0.3,0.4-0.9,0.5-1.3,0.1c-0.4-0.3-0.5-0.9-0.1-1.3
					C533.8,218.8,534.4,218.8,534.8,219.1z"/>
			</g>
		</g>
	</g>
	<g>
		<g>
			<line class="st6" x1="580.1" y1="174.2" x2="497.9" y2="190.3"/>
			<g>
				<path d="M579.8,173.3c0.5-0.1,1,0.2,1.1,0.7c0.1,0.5-0.2,1-0.7,1.1c-0.5,0.1-1-0.2-1.1-0.7C579,173.9,579.3,173.4,579.8,173.3z"
					/>
			</g>
		</g>
	</g>
	<g>
		<rect x="253.3" y="93.1" class="st2" width="188.6" height="91.1"/>
		<text transform="matrix(1 0 0 1 263.0795 105.1304)"><tspan x="0" y="0" class="st3 st4 st5">Poseen un punto blanco </tspan><tspan x="-9.4" y="19.2" class="st3 st4 st5">detrás de cada oreja que le </tspan><tspan x="0.1" y="38.4" class="st3 st4 st5">sirve de camuflaje en su </tspan><tspan x="31.9" y="57.6" class="st3 st4 st5">hábitat natural.</tspan></text>
	</g>
</g>
<g>
	<line class="st7" x1="695.4" y1="57" x2="700.5" y2="182"/>
	<g>
		<rect x="544.3" y="10.7" class="st2" width="146.3" height="79"/>
		<text transform="matrix(1 0 0 1 548.2603 22.6961)"><tspan x="0" y="0" class="st3 st4 st5">Bigotes sensibles al </tspan><tspan x="8.3" y="19.2" class="st3 st4 st5">tacto, les ayuda a </tspan><tspan x="-0.6" y="38.4" class="st3 st4 st5">encontrar el camino </tspan><tspan x="14.1" y="57.6" class="st3 st4 st5">en la oscuridad.</tspan></text>
	</g>
</g>
<g>
	<line class="st7" x1="265" y1="561.3" x2="241.7" y2="637.9"/>
	<g>
		<rect x="124.2" y="647.9" class="st2" width="153.1" height="52.3"/>
		<text transform="matrix(1 0 0 1 134.8923 659.8896)"><tspan x="0" y="0" class="st3 st4 st5">La cola mide de 85 </tspan><tspan x="-9.7" y="19.2" class="st3 st4 st5">cm a 1 m de longitud.</tspan></text>
	</g>
	<g>
		<g>
			<path class="st8" d="M325.3,478.8c-22.7-36.8-80.6-6.8-83.4,21.9c-4.6,47.6,57.8,104.4,94.4,118.3c39.5,15,49,27.5,49.9,28.7"/>
			<g>
				<rect x="324.5" y="478.7" transform="matrix(0.8269 -0.5624 0.5624 0.8269 -212.9565 265.8318)" width="1.6" height="0.3"/>
			</g>
			<g>
				<rect x="385.4" y="647.7" transform="matrix(0.8022 -0.5971 0.5971 0.8022 -310.3755 358.7749)" width="1.6" height="0.3"/>
			</g>
		</g>
	</g>
</g>
<g>
	<g>
		<rect x="364.5" y="456.9" class="st2" width="146.6" height="62.4"/>
		<text transform="matrix(1 0 0 1 367.4758 468.9457)"><tspan x="0" y="0" class="st3 st4 st5">Las líneas verticales </tspan><tspan x="-1.5" y="19.2" class="st3 st4 st5">en la cola se vuelven </tspan><tspan x="45.8" y="38.4" class="st3 st4 st5">anillos.</tspan></text>
	</g>
	<g>
		<g>
			<line class="st1" x1="397.2" y1="578" x2="413.3" y2="525.3"/>
			<g>
				<path d="M398.1,578.2c-0.2,0.5-0.7,0.8-1.2,0.6s-0.8-0.7-0.6-1.2c0.2-0.5,0.7-0.8,1.2-0.6C398,577.2,398.3,577.7,398.1,578.2z"
					/>
			</g>
		</g>
	</g>
</g>
</svg>
