<?xml version="1.0" encoding="utf-8"?>
<!-- Generator: Adobe Illustrator 26.0.1, SVG Export Plug-In . SVG Version: 6.00 Build 0)  -->
<svg version="1.1" id="Capa_1" xmlns="http://www.w3.org/2000/svg" xmlns:xlink="http://www.w3.org/1999/xlink" x="0px" y="0px"
	 viewBox="0 0 1000 1200" style="enable-background:new 0 0 1000 1200;" xml:space="preserve">
<style type="text/css">
	.st0{fill:#DD7324;}
	.st1{fill:none;stroke:#000000;stroke-width:0.5;stroke-linecap:round;stroke-linejoin:round;}
	.st2{fill:none;}
	.st3{fill:#1E1E1C;}
	.st4{font-family:'Roboto-Light';}
	.st5{font-size:19.0597px;}
	.st6{fill:none;stroke:#000000;stroke-width:0.5;stroke-linecap:round;stroke-miterlimit:10;}
	.st7{fill:none;stroke:#000000;stroke-width:0.5;stroke-linecap:round;stroke-linejoin:round;stroke-miterlimit:10;}
	.st8{fill:none;stroke:#000000;stroke-width:0.5;stroke-miterlimit:10;stroke-dasharray:1,1;}
</style>
<circle class="st0" cx="747.3" cy="250.1" r="9.9"/>
<image style="overflow:visible;enable-background:new    ;" width="1230" height="1991" xlink:href="tigre.png"  transform="matrix(0.5918 -1.833791e-03 1.833791e-03 0.5918 183.2591 17.0652)">
</image>
<g>
	<g>
		<g>
			<polyline class="st1" points="446.9,910.8 467.2,916.6 511.8,944.2 			"/>
			<g>
				<path d="M446.7,911.7c-0.5-0.1-0.8-0.7-0.6-1.2c0.1-0.5,0.7-0.8,1.2-0.6c0.5,0.1,0.8,0.7,0.6,1.2
					C447.7,911.6,447.2,911.9,446.7,911.7z"/>
			</g>
		</g>
	</g>
	<g>
		<rect x="511.8" y="931.8" class="st2" width="159" height="70.4"/>
		<text transform="matrix(1 0 0 1 516.5486 946.0557)" class="st3 st4 st5">El patrón de rayas </text>
		<text transform="matrix(1 0 0 1 520.5486 968.9557)" class="st3 st4 st5">oscuras es único </text>
		<text transform="matrix(1 0 0 1 516.4486 991.7557)" class="st3 st4 st5">en cada individuo.</text>
	</g>
</g>
<g>
	<g>
		<g>
			<line class="st1" x1="554" y1="280.7" x2="434.3" y2="195.4"/>
			<g>
				<path d="M554.5,279.9c0.4,0.3,0.5,0.9,0.1,1.3c-0.3,0.4-0.9,0.5-1.3,0.1c-0.4-0.3-0.5-0.9-0.1-1.3
					C553.5,279.7,554.1,279.6,554.5,279.9z"/>
			</g>
		</g>
	</g>
	<g>
		<g>
			<line class="st6" x1="613.6" y1="222.9" x2="499" y2="241.5"/>
			<g>
				<path d="M613.4,222c0.5-0.1,1,0.2,1.1,0.7s-0.2,1-0.7,1.1s-1-0.2-1.1-0.7S612.9,222.1,613.4,222z"/>
			</g>
		</g>
	</g>
	<g>
		<rect x="204.7" y="129.6" class="st2" width="224.6" height="108.5"/>
		<text transform="matrix(1 0 0 1 216.3596 143.9351)" class="st3 st4 st5">Poseen un punto blanco </text>
		<text transform="matrix(1 0 0 1 205.1596 166.8351)" class="st3 st4 st5">detrás de cada oreja que le </text>
		<text transform="matrix(1 0 0 1 216.4596 189.6351)" class="st3 st4 st5">sirve de camuflaje en su </text>
		<text transform="matrix(1 0 0 1 254.3596 212.5351)" class="st3 st4 st5">hábitat natural.</text>
	</g>
</g>
<g>
	<line class="st7" x1="731.4" y1="86.6" x2="742.9" y2="241.3"/>
	<g>
		<rect x="551.3" y="31.4" class="st2" width="174.3" height="94.1"/>
		<text transform="matrix(1 0 0 1 556.075 45.7368)" class="st3 st4 st5">Bigotes sensibles al </text>
		<text transform="matrix(1 0 0 1 565.975 68.6368)" class="st3 st4 st5">tacto, les ayuda a </text>
		<text transform="matrix(1 0 0 1 555.375 91.4368)" class="st3 st4 st5">encontrar el camino </text>
		<text transform="matrix(1 0 0 1 572.775 114.3368)" class="st3 st4 st5">en la oscuridad.</text>
	</g>
</g>
<g>
	<line class="st7" x1="218.6" y1="687.3" x2="190.9" y2="778.6"/>
	<g>
		<rect x="50.9" y="790.5" class="st2" width="182.4" height="62.3"/>
		<text transform="matrix(1 0 0 1 63.6589 804.7783)" class="st3 st4 st5">La cola mide de 85 </text>
		<text transform="matrix(1 0 0 1 52.1589 827.6783)" class="st3 st4 st5">cm a 1 m de longitud.</text>
	</g>
	<g>
		<g>
			<path class="st8" d="M290.5,589.1c-27-43.9-91.9-6.2-95.2,28.1c-5.5,56.7,64.7,122.3,108.3,138.9c46.9,17.8,54.4,23.6,55.5,25.2"
				/>
			<g>
				<rect x="289.8" y="589" transform="matrix(0.8269 -0.5624 0.5624 0.8269 -281.0213 265.3952)" width="1.6" height="0.3"/>
			</g>
			<g>
				<rect x="358.4" y="781.3" transform="matrix(0.8022 -0.5971 0.5971 0.8022 -395.5379 369.0811)" width="1.6" height="0.3"/>
			</g>
		</g>
	</g>
</g>
<g>
	<g>
		<rect x="337.1" y="563" class="st2" width="174.6" height="74.3"/>
		<text transform="matrix(1 0 0 1 340.719 577.3218)" class="st3 st4 st5">Las líneas verticales </text>
		<text transform="matrix(1 0 0 1 338.919 600.2218)" class="st3 st4 st5">en la cola se vuelven </text>
		<text transform="matrix(1 0 0 1 395.319 623.0218)" class="st3 st4 st5">anillos.</text>
	</g>
	<g>
		<g>
			<line class="st1" x1="376.1" y1="707.4" x2="395.3" y2="644.5"/>
			<g>
				<path d="M377,707.6c-0.2,0.5-0.7,0.8-1.2,0.6s-0.8-0.7-0.6-1.2c0.2-0.5,0.7-0.8,1.2-0.6S377.1,707.1,377,707.6z"/>
			</g>
		</g>
	</g>
</g>
</svg>
