<?xml version="1.0" encoding="utf-8"?>
<!-- Generator: Adobe Illustrator 26.0.1, SVG Export Plug-In . SVG Version: 6.00 Build 0)  -->
<svg version="1.1" id="Capa_1" xmlns="http://www.w3.org/2000/svg" xmlns:xlink="http://www.w3.org/1999/xlink" x="0px" y="0px"
	 viewBox="0 0 1000 1000" style="enable-background:new 0 0 1000 1000;" xml:space="preserve">
<style type="text/css">
	.st0{fill:#DD7324;}
	.st1{fill:none;stroke:#000000;stroke-width:0.5;stroke-linecap:round;stroke-linejoin:round;}
	.st2{fill:none;}
	.st3{fill:#1E1E1C;}
	.st4{font-family:'Roboto-Light';}
	.st5{font-size:16px;}
	.st6{fill:none;stroke:#000000;stroke-width:0.5;stroke-linecap:round;stroke-miterlimit:10;}
	.st7{fill:none;stroke:#000000;stroke-width:0.5;stroke-linecap:round;stroke-linejoin:round;stroke-miterlimit:10;}
	.st8{fill:none;stroke:#000000;stroke-width:0.5;stroke-miterlimit:10;stroke-dasharray:1,1;}
</style>
<circle class="st0" cx="708.8" cy="198.6" r="8.3"/>
<image style="overflow:visible;enable-background:new    ;" width="1230" height="1991" xlink:href="tigre.png"  transform="matrix(0.4922 -1.942981e-03 1.942981e-03 0.4922 237.5134 6.5187)">
</image>
<g>
	<g>
		<g>
			<polyline class="st1" points="456.8,748.9 473.7,753.8 511.1,777 			"/>
			<g>
				<path d="M456.6,749.9c-0.5-0.1-0.8-0.7-0.6-1.2c0.1-0.5,0.7-0.8,1.2-0.6c0.5,0.1,0.8,0.7,0.6,1.2
					C457.6,749.7,457,750,456.6,749.9z"/>
			</g>
		</g>
	</g>
	<g>
		<rect x="511.1" y="766.5" class="st2" width="133.5" height="59.1"/>
		<text transform="matrix(1 0 0 1 515.0788 778.4875)" class="st3 st4 st5">El patrón de rayas </text>
		<text transform="matrix(1 0 0 1 518.4788 797.6875)" class="st3 st4 st5">oscuras es único </text>
		<text transform="matrix(1 0 0 1 514.9788 816.8875)" class="st3 st4 st5">en cada individuo.</text>
	</g>
</g>
<g>
	<g>
		<g>
			<line class="st1" x1="544.9" y1="223.5" x2="446" y2="148.3"/>
			<g>
				<path d="M545.4,222.8c0.4,0.3,0.5,0.9,0.1,1.3c-0.3,0.4-0.9,0.5-1.3,0.1c-0.4-0.3-0.5-0.9-0.1-1.3
					C544.4,222.5,545,222.5,545.4,222.8z"/>
			</g>
		</g>
	</g>
	<g>
		<g>
			<line class="st6" x1="593.9" y1="179.6" x2="497.9" y2="187.8"/>
			<g>
				<path d="M593.6,178.7c0.5-0.1,1,0.2,1.1,0.7s-0.2,1-0.7,1.1s-1-0.2-1.1-0.7C592.8,179.3,593.1,178.8,593.6,178.7z"/>
			</g>
		</g>
	</g>
	<g>
		<rect x="253.3" y="93.1" class="st2" width="188.6" height="91.1"/>
		<text transform="matrix(1 0 0 1 263.0795 105.1304)" class="st3 st4 st5">Poseen un punto blanco </text>
		<text transform="matrix(1 0 0 1 253.6795 124.3304)" class="st3 st4 st5">detrás de cada oreja que le </text>
		<text transform="matrix(1 0 0 1 263.1795 143.5304)" class="st3 st4 st5">sirve de camuflaje en su </text>
		<text transform="matrix(1 0 0 1 294.9795 162.7304)" class="st3 st4 st5">hábitat natural.</text>
	</g>
</g>
<g>
	<line class="st7" x1="695.4" y1="57" x2="706.4" y2="190.7"/>
	<g>
		<rect x="544.3" y="10.7" class="st2" width="146.3" height="79"/>
		<text transform="matrix(1 0 0 1 548.2603 22.6961)" class="st3 st4 st5">Bigotes sensibles al </text>
		<text transform="matrix(1 0 0 1 556.5603 41.8961)" class="st3 st4 st5">tacto, les ayuda a </text>
		<text transform="matrix(1 0 0 1 547.6603 61.0961)" class="st3 st4 st5">encontrar el camino </text>
		<text transform="matrix(1 0 0 1 562.3603 80.2961)" class="st3 st4 st5">en la oscuridad.</text>
	</g>
</g>
<g>
	<line class="st7" x1="265" y1="561.3" x2="241.7" y2="637.9"/>
	<g>
		<rect x="124.2" y="647.9" class="st2" width="153.1" height="52.3"/>
		<text transform="matrix(1 0 0 1 134.8923 659.8896)" class="st3 st4 st5">La cola mide de 85 </text>
		<text transform="matrix(1 0 0 1 125.1923 679.0896)" class="st3 st4 st5">cm a 1 m de longitud.</text>
	</g>
	<g>
		<g>
			<path class="st8" d="M325.3,478.8c-18.9-28.6-75.7-7.5-78.5,21.2c-4.6,47.6,52.9,105.1,89.5,119c39.5,15,49,27.5,49.9,28.7"/>
			<g>
				<rect x="324.5" y="478.7" transform="matrix(0.8269 -0.5624 0.5624 0.8269 -212.9703 265.8648)" width="1.6" height="0.3"/>
			</g>
			<g>
				<polygon points="385.5,648.2 386.8,647.3 386.8,647.3 385.7,648.5 				"/>
			</g>
		</g>
	</g>
</g>
<g>
	<g>
		<rect x="364.5" y="456.9" class="st2" width="146.6" height="62.4"/>
		<text transform="matrix(1 0 0 1 367.4758 468.9457)" class="st3 st4 st5">Las líneas verticales </text>
		<text transform="matrix(1 0 0 1 365.9758 488.1457)" class="st3 st4 st5">en la cola se vuelven </text>
		<text transform="matrix(1 0 0 1 413.2758 507.3457)" class="st3 st4 st5">anillos.</text>
	</g>
	<g>
		<g>
			<line class="st1" x1="397.2" y1="578" x2="413.3" y2="525.3"/>
			<g>
				<path d="M398.1,578.2c-0.2,0.5-0.7,0.8-1.2,0.6s-0.8-0.7-0.6-1.2c0.2-0.5,0.7-0.8,1.2-0.6S398.3,577.7,398.1,578.2z"/>
			</g>
		</g>
	</g>
</g>
</svg>
